<svg t="1696080882627" class="icon" viewBox="0 0 1024 1024" version="1.1" xmlns="http://www.w3.org/2000/svg" p-id="17555" width="64" height="64"><path d="M940 448.59392c0-236.37888-191.62112-428-428-428s-428 191.62112-428 428c0 164.52736 92.95296 307.17184 229.10144 378.80832l-55.85536 37.58208c-3.31648 2.2304-5.6096 5.26144-7.3792 8.55488-1.17952 1.86688-1.84 3.9456-2.46464 6.07424-0.05056 0.21888-0.176 0.41024-0.21888 0.63296-1.01568 3.86304-1.42208 7.9104-0.31232 12.04672L271.488 984.16384c2.06656 7.71072 7.85152 13.1136 14.7968 15.71456 3.50784 2.04288 7.3632 3.52704 11.71456 3.52704l428 0c0.96512 0 1.78496-0.43776 2.71872-0.55104 11.35552-0.15616 21.73056-6.85568 24.8128-17.58592l26.97664-93.824c0.20672-0.7072 0.01152-1.39456 0.14464-2.1056 0.16768-0.82432 0.08192-1.63648 0.16384-2.46848 0.15616-2.03136 0.37504-4.03136-0.00384-5.98016-0.91776-6.30848-4.1056-12.22272-9.58592-16.06272l-56.21504-39.40992C848.96064 753.10144 940 611.49632 940 448.59392zM512 68.14464c210.11328 0 380.44544 170.336 380.44544 380.44928l-206.57408 0C683.18336 354.63296 606.60544 279.17568 512 279.17568c-94.60928 0-171.18336 75.45728-173.87136 169.41824L131.55456 448.59392C131.55456 238.48064 301.88672 68.14464 512 68.14464zM638.81664 453.54688c0 70.03904-56.7776 126.8128-126.81664 126.8128S385.18336 523.58592 385.18336 453.54688 441.96096 326.73408 512 326.73408 638.81664 383.50784 638.81664 453.54688zM726.8128 890.56256l-18.77312 65.28896L313.13664 955.85152l-16.15616-60.28544 67.6992-45.55456C410.67584 866.9024 460.14848 876.59392 512 876.59392c54.23424 0 105.91424-10.49984 153.66016-28.9024L726.8128 890.56256zM512 829.03488c-204.7616 0-371.26976-161.88288-379.6448-364.59008L338.7264 464.4448C344.4608 555.56672 419.42976 627.91808 512 627.91808c92.5664 0 167.5392-72.35136 173.2736-163.47264l206.3712 0C883.26976 667.15264 716.7616 829.03488 512 829.03488zM448.59392 448.59392c0-5.50784 0.9216-10.75776 2.24192-15.85152L434.33984 432.7424C433.29664 437.86304 432.7424 443.16032 432.7424 448.59392c0 27.04704 13.59744 50.8672 34.27328 65.168l8-13.85536C459.07008 488.3904 448.59392 469.76576 448.59392 448.59392zM519.92576 512 504.07424 512C499.6992 512 496.14848 515.55072 496.14848 519.92576S499.6992 527.85152 504.07424 527.85152l15.85152 0c4.37504 0 7.92576-3.55072 7.92576-7.92576S524.3008 512 519.92576 512zM519.92576 226.66816c13.1328 0 23.77728-10.64448 23.77728-23.77728S533.05856 179.10912 519.92576 179.10912 496.14848 189.75808 496.14848 202.89088 506.79296 226.66816 519.92576 226.66816z" fill="#ffffff" p-id="17556"></path></svg>